<?xml version="1.0" standalone="no"?>
<!DOCTYPE svg PUBLIC "-//W3C//DTD SVG 20010904//EN"
 "http://www.w3.org/TR/2001/REC-SVG-20010904/DTD/svg10.dtd">
<svg version="1.0" xmlns="http://www.w3.org/2000/svg"
 width="1000.000000pt" height="1000.000000pt" viewBox="0 0 1000.000000 1000.000000"
 preserveAspectRatio="xMidYMid meet">
<metadata>
Created by potrace 1.14, written by Peter Selinger 2001-2017
</metadata>
<g transform="translate(0.000000,1000.000000) scale(0.100000,-0.100000)"
fill="#000000" stroke="none">
<path d="M4080 8393 c-200 -23 -346 -116 -421 -268 l-34 -70 -6 -1720 c-4
-1316 -8 -1755 -18 -1868 -15 -162 -6 -314 25 -432 38 -142 132 -278 234 -337
36 -21 71 -30 175 -42 330 -39 381 -40 1835 -37 1113 2 1453 0 1595 -11 251
-18 443 -17 525 5 255 68 380 233 405 535 l7 82 -2086 0 -2086 0 0 2085 0
2085 -57 -2 c-32 0 -74 -3 -93 -5z"/>
<path d="M2510 6799 c-117 -9 -208 -37 -286 -87 -72 -47 -114 -95 -157 -182
l-32 -65 -6 -1720 c-4 -1317 -8 -1756 -19 -1873 -28 -328 30 -555 180 -703 37
-37 83 -71 101 -77 38 -13 208 -35 404 -54 99 -9 485 -12 1605 -10 1032 2
1505 0 1575 -8 187 -21 393 -24 485 -6 278 52 439 253 440 549 l0 77 -2085 0
-2086 0 1 2068 c0 1137 1 2075 0 2085 0 9 -6 16 -12 16 -7 -1 -56 -5 -108 -10z"/>
</g>
</svg>
